<svg id="Camada_1" data-name="Camada 1" xmlns="http://www.w3.org/2000/svg" viewBox="0 0 566.01 93.52"><defs><style>.cls-1{fill:#624695;}</style></defs><title>marca</title><path class="cls-1" d="M301.47,59.51h0v-51H286.33a1.85,1.85,0,0,0-1.85,1.85V30.1a33.78,33.78,0,0,0-17-4.55h0a34,34,0,0,0-34,34h0a34,34,0,0,0,34,34h0a34,34,0,0,0,33.89-31.84h.08V59.52Zm-16.73-1.92a17.16,17.16,0,1,1-15.32-15.32A17.16,17.16,0,0,1,284.74,57.59Z"/><path class="cls-1" d="M97.67,59.53a17,17,0,0,1,17-17h5.74a2.76,2.76,0,0,0,2.76-2.77V28.29a2.75,2.75,0,0,0-2.76-2.76h-5.56A34.17,34.17,0,0,0,80.67,59.7v32a1.84,1.84,0,0,0,1.85,1.84H97.67v-34Z"/><path class="cls-1" d="M145.82,25.4l-11.46.12a2.76,2.76,0,0,0-2.73,2.76V91.64a1.84,1.84,0,0,0,1.84,1.84h15.14V28.16A2.77,2.77,0,0,0,145.82,25.4Z"/><circle class="cls-1" cx="312.15" cy="83.23" r="8.5"/><path class="cls-1" d="M59.41,76.5a4.22,4.22,0,0,1-4.21-4.22V45.14a2.61,2.61,0,0,1,2.61-2.61H69.42a2.76,2.76,0,0,0,2.76-2.76V28.31a2.75,2.75,0,0,0-2.76-2.76H55.2V11.4a2.76,2.76,0,0,0-2.79-2.76L41,8.75a2.77,2.77,0,0,0-2.74,2.76v14h-10a2.75,2.75,0,0,0-2.76,2.76V39.77a2.76,2.76,0,0,0,2.76,2.76H35.6a2.61,2.61,0,0,1,2.61,2.61V76.5A16.68,16.68,0,0,0,54.89,93.18H69.42a2.76,2.76,0,0,0,2.76-2.77V79.26a2.75,2.75,0,0,0-2.76-2.76Z"/><circle class="cls-1" cx="8.49" cy="8.49" r="8.49"/><circle class="cls-1" cx="140.12" cy="8.49" r="8.49"/><path class="cls-1" d="M14.19,25.4l-11.46.12A2.76,2.76,0,0,0,0,28.28v51A14.22,14.22,0,0,0,14.22,93.48H17V28.16A2.77,2.77,0,0,0,14.19,25.4Z"/><path class="cls-1" d="M225,59.47a34,34,0,0,0-67.94,0h0a34,34,0,0,0,51,29.42v2.71a1.84,1.84,0,0,0,1.85,1.84H225v-34h0v0Zm-33.8,17.37a17.16,17.16,0,1,1,17.15-17.37l-.34,3.65A17.16,17.16,0,0,1,191.24,76.84Z"/><path class="cls-1" d="M353.25,29.46v-18h2.85V29.46Z"/><path class="cls-1" d="M372.13,29.46h-2.79V22a4.82,4.82,0,0,0-.6-2.73,2,2,0,0,0-1.77-.85,3.54,3.54,0,0,0-1.22.22,4.65,4.65,0,0,0-1.14.65,5,5,0,0,0-.95,1,4.57,4.57,0,0,0-.65,1.26v7.91h-2.8V16.16h2.54v2.67A5.41,5.41,0,0,1,365,16.71a6.61,6.61,0,0,1,3.2-.77,4,4,0,0,1,2,.43,3.23,3.23,0,0,1,1.2,1.18,4.87,4.87,0,0,1,.62,1.73,11.39,11.39,0,0,1,.18,2.07Z"/><path class="cls-1" d="M380.62,29.71a10.1,10.1,0,0,1-3.19-.52,8,8,0,0,1-2.73-1.49l1.12-1.78a9.79,9.79,0,0,0,2.36,1.31,6.62,6.62,0,0,0,2.39.45,3.44,3.44,0,0,0,2-.49,1.54,1.54,0,0,0,.72-1.37,1.28,1.28,0,0,0-.81-1.22,17.26,17.26,0,0,0-2.54-.84c-.83-.22-1.54-.43-2.14-.63a5.68,5.68,0,0,1-1.44-.71,2.49,2.49,0,0,1-.82-.94,3,3,0,0,1-.25-1.3,4,4,0,0,1,.39-1.81,3.81,3.81,0,0,1,1.1-1.33,4.83,4.83,0,0,1,1.63-.83,7.4,7.4,0,0,1,2-.27,8.52,8.52,0,0,1,2.8.45,7.55,7.55,0,0,1,2.31,1.32l-1.2,1.68a6.23,6.23,0,0,0-3.94-1.47,3.32,3.32,0,0,0-1.79.44,1.54,1.54,0,0,0-.72,1.41,1.47,1.47,0,0,0,.15.69,1.29,1.29,0,0,0,.5.48,3.69,3.69,0,0,0,.88.37l1.36.37c.9.22,1.68.44,2.33.66a6.19,6.19,0,0,1,1.61.78,2.72,2.72,0,0,1,.94,1,3,3,0,0,1,.31,1.43,3.58,3.58,0,0,1-1.44,3A6.23,6.23,0,0,1,380.62,29.71Z"/><path class="cls-1" d="M396.2,28.77a14.41,14.41,0,0,1-1.47.57,6.32,6.32,0,0,1-2,.32,4.24,4.24,0,0,1-1.25-.18,3.24,3.24,0,0,1-1-.53,2.41,2.41,0,0,1-.69-.93,3.36,3.36,0,0,1-.26-1.38V18.32h-1.75V16.16h1.75V11.79h2.8v4.37h2.89v2.16h-2.89v7.43a1.36,1.36,0,0,0,.44,1,1.46,1.46,0,0,0,1,.32,3.26,3.26,0,0,0,1.12-.2l.79-.33Z"/><path class="cls-1" d="M398.54,14V10.9h2.8V14Zm0,15.48V16.16h2.8v13.3Z"/><path class="cls-1" d="M412.49,28.77a12.75,12.75,0,0,1-1.47.57,6.32,6.32,0,0,1-2,.32,4.24,4.24,0,0,1-1.25-.18,3.19,3.19,0,0,1-1-.53A2.44,2.44,0,0,1,406,28a3.36,3.36,0,0,1-.26-1.38V18.32H404V16.16h1.75V11.79h2.8v4.37h2.9v2.16h-2.9v7.43a1.36,1.36,0,0,0,.44,1,1.48,1.48,0,0,0,1,.32,3.26,3.26,0,0,0,1.12-.2c.36-.14.62-.25.79-.33Z"/><path class="cls-1" d="M418.92,29.71a3.75,3.75,0,0,1-3.15-1.36,6.5,6.5,0,0,1-1.07-4.05V16.16h2.8v7.58q0,3.59,2.54,3.58a4,4,0,0,0,2.26-.73A4.9,4.9,0,0,0,424,24.45V16.16h2.79v10a1.06,1.06,0,0,0,.17.69.79.79,0,0,0,.59.23v2.39l-.71.1-.53,0a2,2,0,0,1-1.3-.42,1.38,1.38,0,0,1-.56-1.08l-.05-1.32a5.87,5.87,0,0,1-2.31,2.2A6.61,6.61,0,0,1,418.92,29.71Z"/><path class="cls-1" d="M438.11,28.77a12.75,12.75,0,0,1-1.47.57,6.32,6.32,0,0,1-2,.32,4.18,4.18,0,0,1-1.24-.18,3.14,3.14,0,0,1-1-.53,2.44,2.44,0,0,1-.7-.93,3.36,3.36,0,0,1-.26-1.38V18.32h-1.75V16.16h1.75V11.79h2.8v4.37h2.9v2.16h-2.9v7.43a1.36,1.36,0,0,0,.44,1,1.48,1.48,0,0,0,1,.32,3.26,3.26,0,0,0,1.12-.2c.36-.14.62-.25.79-.33Z"/><path class="cls-1" d="M446.09,29.71a6.94,6.94,0,0,1-2.83-.56,6.49,6.49,0,0,1-3.52-3.7,7.45,7.45,0,0,1,0-5.26,6.38,6.38,0,0,1,1.39-2.2,7,7,0,0,1,2.16-1.5,7.43,7.43,0,0,1,5.61,0,7,7,0,0,1,2.16,1.5,6.54,6.54,0,0,1,1.39,2.2,7.45,7.45,0,0,1,0,5.26,6.54,6.54,0,0,1-1.39,2.2,6.64,6.64,0,0,1-2.16,1.5A6.88,6.88,0,0,1,446.09,29.71Zm-4-6.86a5.12,5.12,0,0,0,.3,1.78,4.71,4.71,0,0,0,.84,1.41,4.16,4.16,0,0,0,1.26.94,3.56,3.56,0,0,0,1.56.34,3.6,3.6,0,0,0,1.57-.34,3.91,3.91,0,0,0,1.26-1,4.54,4.54,0,0,0,.83-1.42,5.21,5.21,0,0,0,0-3.54,4.64,4.64,0,0,0-.83-1.44,3.88,3.88,0,0,0-1.26-.95,3.61,3.61,0,0,0-1.57-.35,3.38,3.38,0,0,0-1.53.36,3.87,3.87,0,0,0-1.26,1,4.52,4.52,0,0,0-.85,1.43A4.72,4.72,0,0,0,442.13,22.85Z"/><path class="cls-1" d="M475.4,13.93h-6V29.46h-2.87V13.93h-6V11.41h14.9Z"/><path class="cls-1" d="M482.54,18.58a6.16,6.16,0,0,0-2.88.75,4,4,0,0,0-1.8,2v8.14h-2.79V16.16h2.59v3a6.13,6.13,0,0,1,1.79-2.2,4.35,4.35,0,0,1,2.38-.9h.42a1.32,1.32,0,0,1,.29,0Z"/><path class="cls-1" d="M485,14V10.9h2.8V14Zm0,15.48V16.16h2.8v13.3Z"/><path class="cls-1" d="M495.07,29.71a5,5,0,0,1-1.79-.32,4.24,4.24,0,0,1-1.42-.87,4,4,0,0,1-.94-1.33,4,4,0,0,1-.35-1.65,3.56,3.56,0,0,1,.41-1.7,4,4,0,0,1,1.15-1.32,5.91,5.91,0,0,1,1.78-.87,8.17,8.17,0,0,1,2.28-.3,10.35,10.35,0,0,1,1.85.16,8.87,8.87,0,0,1,1.66.45V21a3.08,3.08,0,0,0-.84-2.3,3.32,3.32,0,0,0-2.42-.82,5.82,5.82,0,0,0-2.09.39,10.52,10.52,0,0,0-2.13,1.13l-.86-1.78a9.43,9.43,0,0,1,5.34-1.72A6.1,6.1,0,0,1,501,17.33a5.21,5.21,0,0,1,1.52,4v4.8c0,.6.25.9.74.92v2.39c-.27.05-.51.08-.7.1l-.57,0a1.82,1.82,0,0,1-1.26-.4,1.74,1.74,0,0,1-.55-1.05l-.07-.83a6,6,0,0,1-2.2,1.79A6.52,6.52,0,0,1,495.07,29.71Zm.76-2.06a4.94,4.94,0,0,0,1.92-.37,3.28,3.28,0,0,0,1.41-1,1.27,1.27,0,0,0,.54-1V23.53a8.93,8.93,0,0,0-1.52-.43,8.4,8.4,0,0,0-1.56-.15,4.27,4.27,0,0,0-2.45.65,2,2,0,0,0-.95,1.71A2.18,2.18,0,0,0,494,27,2.67,2.67,0,0,0,495.83,27.65Z"/><path class="cls-1" d="M511.69,29.71a5.67,5.67,0,0,1-2.49-.55,6.27,6.27,0,0,1-2-1.48,7,7,0,0,1-1.31-2.2,7.75,7.75,0,0,1-.47-2.71,7.61,7.61,0,0,1,.45-2.63A6.94,6.94,0,0,1,507.13,18,6,6,0,0,1,509,16.48a5.24,5.24,0,0,1,2.38-.54,5.1,5.1,0,0,1,2.82.77,5.62,5.62,0,0,1,1.91,2V10.9h2.79V26.15a1.13,1.13,0,0,0,.17.69.84.84,0,0,0,.6.23v2.39l-.7.1-.45,0a2.1,2.1,0,0,1-1.37-.43,1.54,1.54,0,0,1-.59-1.12l-.05-1a5.37,5.37,0,0,1-2,2A5.74,5.74,0,0,1,511.69,29.71Zm.69-2.39a4,4,0,0,0,1.22-.2,4.35,4.35,0,0,0,1.12-.56,4.13,4.13,0,0,0,.88-.84,3.28,3.28,0,0,0,.52-1V21.19a4.27,4.27,0,0,0-.65-1.16,4.86,4.86,0,0,0-1-.92,4.38,4.38,0,0,0-1.14-.58,3.57,3.57,0,0,0-1.2-.21,3.22,3.22,0,0,0-1.54.38,4.09,4.09,0,0,0-1.21,1,5.1,5.1,0,0,0-.8,1.45,5,5,0,0,0-.29,1.68A4.49,4.49,0,0,0,510.82,27,3.57,3.57,0,0,0,512.38,27.32Z"/><path class="cls-1" d="M358.3,60.21a5.67,5.67,0,0,1-2.49-.55,6.27,6.27,0,0,1-2-1.48,7,7,0,0,1-1.31-2.2,7.75,7.75,0,0,1-.47-2.71,7.61,7.61,0,0,1,.45-2.63,7.14,7.14,0,0,1,1.24-2.17A5.92,5.92,0,0,1,355.63,47a5.23,5.23,0,0,1,2.37-.55,5.1,5.1,0,0,1,2.82.78,5.62,5.62,0,0,1,1.91,2V41.4h2.79V56.65a1.13,1.13,0,0,0,.17.69.84.84,0,0,0,.6.23V60l-.7.1-.45,0a2.1,2.1,0,0,1-1.37-.43,1.5,1.5,0,0,1-.58-1.12l-.06-1a5.37,5.37,0,0,1-2,2A5.74,5.74,0,0,1,358.3,60.21Zm.69-2.39a4,4,0,0,0,1.22-.2,4.35,4.35,0,0,0,1.12-.56,4.13,4.13,0,0,0,.88-.84,3.08,3.08,0,0,0,.52-1V51.69a4.27,4.27,0,0,0-.65-1.16,4.86,4.86,0,0,0-.95-.92A4.38,4.38,0,0,0,360,49a3.57,3.57,0,0,0-1.2-.21,3.22,3.22,0,0,0-1.54.38,4.09,4.09,0,0,0-1.21,1,5.35,5.35,0,0,0-.8,1.45,5,5,0,0,0-.29,1.68,4.69,4.69,0,0,0,.32,1.72,4.36,4.36,0,0,0,2.16,2.4A3.57,3.57,0,0,0,359,57.82Z"/><path class="cls-1" d="M375.51,60.21a7,7,0,0,1-2.82-.55,6.53,6.53,0,0,1-2.17-1.48,6.78,6.78,0,0,1-1.4-2.19,7.08,7.08,0,0,1-.5-2.64,7.19,7.19,0,0,1,.5-2.66,6.76,6.76,0,0,1,1.4-2.21,6.3,6.3,0,0,1,2.17-1.5,7.24,7.24,0,0,1,2.85-.55,6.91,6.91,0,0,1,2.81.56,6.73,6.73,0,0,1,2.14,1.49,6.24,6.24,0,0,1,1.36,2.16,7,7,0,0,1,.48,2.58,5.17,5.17,0,0,1,0,.57c0,.18,0,.33-.05.45H371.6a4.55,4.55,0,0,0,.42,1.6,4.22,4.22,0,0,0,.89,1.23,3.72,3.72,0,0,0,1.24.8,3.88,3.88,0,0,0,1.47.28,4.1,4.1,0,0,0,1.1-.14,3.76,3.76,0,0,0,1-.41,3.57,3.57,0,0,0,.81-.64,3.24,3.24,0,0,0,.56-.84l2.39.68a5.55,5.55,0,0,1-2.28,2.46A7.1,7.1,0,0,1,375.51,60.21Zm4.05-7.9a4.62,4.62,0,0,0-.42-1.55,3.89,3.89,0,0,0-.88-1.21,4,4,0,0,0-1.25-.78,4.16,4.16,0,0,0-1.5-.28,4,4,0,0,0-2.72,1.06,3.84,3.84,0,0,0-.86,1.21,4.61,4.61,0,0,0-.41,1.55Z"/><path class="cls-1" d="M392.06,60V41.91h7.57a5,5,0,0,1,2.25.51,5.73,5.73,0,0,1,1.77,1.33,6.37,6.37,0,0,1,1.16,1.88,5.79,5.79,0,0,1,.42,2.15,6.3,6.3,0,0,1-.4,2.2,6.2,6.2,0,0,1-1.1,1.88A5.45,5.45,0,0,1,402,53.18a5,5,0,0,1-2.22.5h-4.88V60Zm2.85-8.8h4.7a2.44,2.44,0,0,0,1.11-.25,2.63,2.63,0,0,0,.85-.71,3.73,3.73,0,0,0,.55-1.07,4.15,4.15,0,0,0,.21-1.35,3.94,3.94,0,0,0-.23-1.37,3.07,3.07,0,0,0-.64-1.06,3,3,0,0,0-.92-.68,2.57,2.57,0,0,0-1.08-.24h-4.55Z"/><path class="cls-1" d="M413.74,60.21a7,7,0,0,1-2.82-.55,6.68,6.68,0,0,1-2.18-1.48A6.75,6.75,0,0,1,407.35,56a7.08,7.08,0,0,1-.5-2.64,7.19,7.19,0,0,1,.5-2.66,6.74,6.74,0,0,1,1.39-2.21,6.43,6.43,0,0,1,2.18-1.5,7.19,7.19,0,0,1,2.84-.55,6.88,6.88,0,0,1,2.81.56,6.78,6.78,0,0,1,2.15,1.49,6.39,6.39,0,0,1,1.36,2.16,7.24,7.24,0,0,1,.47,2.58c0,.2,0,.39,0,.57s0,.33,0,.45H409.83a4.54,4.54,0,0,0,.41,1.6,4.41,4.41,0,0,0,.89,1.23,3.93,3.93,0,0,0,2.71,1.08A4.22,4.22,0,0,0,415,58a3.69,3.69,0,0,0,1-.41,3.18,3.18,0,0,0,.81-.64,3,3,0,0,0,.56-.84l2.39.68a5.47,5.47,0,0,1-2.27,2.46A7.1,7.1,0,0,1,413.74,60.21Zm4-7.9a4.39,4.39,0,0,0-.42-1.55,3.89,3.89,0,0,0-.88-1.21,4,4,0,0,0-1.24-.78,4.2,4.2,0,0,0-1.5-.28,4.11,4.11,0,0,0-1.49.28,4,4,0,0,0-1.23.78,3.69,3.69,0,0,0-.86,1.21,4.38,4.38,0,0,0-.41,1.55Z"/><path class="cls-1" d="M428.07,60.21a10.14,10.14,0,0,1-3.19-.52,8,8,0,0,1-2.73-1.49l1.12-1.78a10,10,0,0,0,2.36,1.31,6.62,6.62,0,0,0,2.39.45,3.44,3.44,0,0,0,2-.49,1.53,1.53,0,0,0,.73-1.37,1.27,1.27,0,0,0-.82-1.22,17.26,17.26,0,0,0-2.54-.84q-1.25-.33-2.13-.63a5.59,5.59,0,0,1-1.45-.71A2.45,2.45,0,0,1,423,52a3,3,0,0,1-.26-1.3,4,4,0,0,1,.39-1.81,3.93,3.93,0,0,1,1.1-1.33,4.79,4.79,0,0,1,1.64-.83,7.27,7.27,0,0,1,2-.28,8.52,8.52,0,0,1,2.8.46A7.55,7.55,0,0,1,433,48.21l-1.2,1.68a6.23,6.23,0,0,0-3.94-1.47,3.35,3.35,0,0,0-1.79.44,1.54,1.54,0,0,0-.72,1.41,1.47,1.47,0,0,0,.15.69,1.29,1.29,0,0,0,.5.48,3.88,3.88,0,0,0,.88.37c.37.11.82.23,1.37.37.89.22,1.67.44,2.32.66a6.8,6.8,0,0,1,1.62.77,3,3,0,0,1,.94,1,3.15,3.15,0,0,1,.3,1.43,3.58,3.58,0,0,1-1.44,3A6.19,6.19,0,0,1,428.07,60.21Z"/><path class="cls-1" d="M441.32,60.21a5.12,5.12,0,0,1-2.38-.56,5.86,5.86,0,0,1-1.86-1.5,7,7,0,0,1-1.2-2.2,8.05,8.05,0,0,1-.44-2.65,7.57,7.57,0,0,1,.47-2.67,7.29,7.29,0,0,1,1.31-2.19,5.9,5.9,0,0,1,2-1.47,5.74,5.74,0,0,1,2.49-.54,5.21,5.21,0,0,1,2.74.74,5.87,5.87,0,0,1,2,1.91V46.66h2.47V61.94a1,1,0,0,0,.18.67,1,1,0,0,0,.63.24v2.39c-.26,0-.51.06-.78.08s-.5,0-.72,0a2.1,2.1,0,0,1-1.49-.58,1.92,1.92,0,0,1-.62-1.45V57.47a5.52,5.52,0,0,1-2,2.05A5.43,5.43,0,0,1,441.32,60.21Zm1-2.39a3.48,3.48,0,0,0,2.2-.72,6.07,6.07,0,0,0,1.54-1.82V51.77a2.93,2.93,0,0,0-.51-1.14,4,4,0,0,0-.9-.93,5,5,0,0,0-1.13-.63,3.11,3.11,0,0,0-1.2-.25,3.52,3.52,0,0,0-1.62.38,4.09,4.09,0,0,0-1.27,1,5,5,0,0,0-1.15,3.15,4.74,4.74,0,0,0,.31,1.73,4.33,4.33,0,0,0,.84,1.41,3.91,3.91,0,0,0,1.27,1A3.77,3.77,0,0,0,442.33,57.82Z"/><path class="cls-1" d="M456.72,60.21a3.75,3.75,0,0,1-3.15-1.36,6.44,6.44,0,0,1-1.07-4.05V46.66h2.79v7.58q0,3.59,2.55,3.58a3.93,3.93,0,0,0,2.26-.74A4.72,4.72,0,0,0,461.75,55V46.66h2.8v10a1.13,1.13,0,0,0,.16.69.84.84,0,0,0,.6.23V60l-.71.1-.54,0a2,2,0,0,1-1.29-.42,1.36,1.36,0,0,1-.56-1.08l0-1.32a6,6,0,0,1-2.31,2.2A6.66,6.66,0,0,1,456.72,60.21Z"/><path class="cls-1" d="M468.51,44.48V41.4h2.8v3.08Zm0,15.48V46.66h2.8V60Z"/><path class="cls-1" d="M479.9,60.21a10.1,10.1,0,0,1-3.19-.52A8.13,8.13,0,0,1,474,58.2l1.12-1.78a10,10,0,0,0,2.37,1.31,6.58,6.58,0,0,0,2.39.45,3.46,3.46,0,0,0,2-.49,1.54,1.54,0,0,0,.72-1.37,1.28,1.28,0,0,0-.81-1.22,17.68,17.68,0,0,0-2.54-.84c-.84-.22-1.55-.43-2.14-.63a5.94,5.94,0,0,1-1.45-.71,2.63,2.63,0,0,1-.81-.94,3,3,0,0,1-.25-1.3,4,4,0,0,1,.39-1.81A3.9,3.9,0,0,1,476,47.54a4.88,4.88,0,0,1,1.64-.83,7.39,7.39,0,0,1,2-.28,8.46,8.46,0,0,1,2.79.46,7.43,7.43,0,0,1,2.31,1.32l-1.19,1.68a6.25,6.25,0,0,0-3.94-1.47,3.32,3.32,0,0,0-1.79.44,1.53,1.53,0,0,0-.73,1.41,1.47,1.47,0,0,0,.15.69,1.36,1.36,0,0,0,.5.48,4,4,0,0,0,.89.37l1.36.37c.9.22,1.67.44,2.32.66a6.44,6.44,0,0,1,1.62.77,2.91,2.91,0,0,1,.94,1,3.14,3.14,0,0,1,.31,1.43,3.58,3.58,0,0,1-1.44,3A6.23,6.23,0,0,1,479.9,60.21Z"/><path class="cls-1" d="M491.62,60.21a5,5,0,0,1-1.8-.32A4.34,4.34,0,0,1,488.4,59a4.17,4.17,0,0,1-.94-1.33,4,4,0,0,1-.34-1.65,3.55,3.55,0,0,1,.4-1.7A3.93,3.93,0,0,1,488.68,53a5.58,5.58,0,0,1,1.78-.87,8.1,8.1,0,0,1,2.27-.3,10.46,10.46,0,0,1,1.86.16,9,9,0,0,1,1.65.45v-.92a3.08,3.08,0,0,0-.84-2.3,3.29,3.29,0,0,0-2.41-.82,5.91,5.91,0,0,0-2.1.39,10.46,10.46,0,0,0-2.12,1.13l-.87-1.78a9.49,9.49,0,0,1,5.34-1.73,6.1,6.1,0,0,1,4.27,1.4,5.18,5.18,0,0,1,1.53,4v4.8c0,.59.24.9.73.92V60c-.27,0-.5.08-.7.1l-.57,0a1.77,1.77,0,0,1-1.25-.4,1.74,1.74,0,0,1-.55-1l-.08-.83a5.89,5.89,0,0,1-2.2,1.79A6.51,6.51,0,0,1,491.62,60.21Zm.76-2.06a5,5,0,0,0,1.92-.37,3.28,3.28,0,0,0,1.41-1,1.28,1.28,0,0,0,.53-1V54a8.81,8.81,0,0,0-1.51-.43,8.48,8.48,0,0,0-1.56-.15,4.33,4.33,0,0,0-2.46.65,2,2,0,0,0-.95,1.71,2.19,2.19,0,0,0,.74,1.67A2.67,2.67,0,0,0,492.38,58.15Z"/><path class="cls-1" d="M515.53,60.21a7,7,0,0,1-2.82-.55,6.53,6.53,0,0,1-2.17-1.48,6.78,6.78,0,0,1-1.4-2.19,7.08,7.08,0,0,1-.5-2.64,7.19,7.19,0,0,1,.5-2.66,6.76,6.76,0,0,1,1.4-2.21,6.3,6.3,0,0,1,2.17-1.5,7.24,7.24,0,0,1,2.85-.55,6.91,6.91,0,0,1,2.81.56,6.73,6.73,0,0,1,2.14,1.49,6.24,6.24,0,0,1,1.36,2.16,7,7,0,0,1,.47,2.58,5.24,5.24,0,0,1,0,.57c0,.18,0,.33-.05.45H511.62a4.55,4.55,0,0,0,.42,1.6,4.22,4.22,0,0,0,.89,1.23,3.72,3.72,0,0,0,1.24.8,3.83,3.83,0,0,0,1.46.28,4.12,4.12,0,0,0,1.11-.14,3.69,3.69,0,0,0,1-.41,3.42,3.42,0,0,0,.82-.64,3.52,3.52,0,0,0,.56-.84l2.38.68a5.47,5.47,0,0,1-2.27,2.46A7.1,7.1,0,0,1,515.53,60.21Zm4-7.9a4.39,4.39,0,0,0-.42-1.55,3.83,3.83,0,0,0-2.12-2,4.16,4.16,0,0,0-1.5-.28,4,4,0,0,0-2.72,1.06,3.84,3.84,0,0,0-.86,1.21,4.61,4.61,0,0,0-.41,1.55Z"/><path class="cls-1" d="M353.25,90.46v-18h6.4a9.62,9.62,0,0,1,3.83.71,7.83,7.83,0,0,1,2.74,1.94,8.13,8.13,0,0,1,1.67,2.85,10.88,10.88,0,0,1,.56,3.5,10.44,10.44,0,0,1-.63,3.72A8.11,8.11,0,0,1,366.06,88a7.79,7.79,0,0,1-2.77,1.83,9.83,9.83,0,0,1-3.64.65Zm12.3-9a8.13,8.13,0,0,0-.4-2.62,5.51,5.51,0,0,0-1.15-2,5.35,5.35,0,0,0-1.86-1.34,6.11,6.11,0,0,0-2.49-.48H356.1v13h3.55a6.14,6.14,0,0,0,2.53-.49A5.15,5.15,0,0,0,364,86.07,5.92,5.92,0,0,0,365.17,84,8.58,8.58,0,0,0,365.55,81.41Z"/><path class="cls-1" d="M377.52,90.71a7,7,0,0,1-2.82-.55,6.39,6.39,0,0,1-2.17-1.48,6.62,6.62,0,0,1-1.4-2.19,7.08,7.08,0,0,1-.5-2.64,7.23,7.23,0,0,1,.5-2.66,6.7,6.7,0,0,1,1.4-2.21,6.58,6.58,0,0,1,2.17-1.5,7.24,7.24,0,0,1,2.85-.54,6.91,6.91,0,0,1,2.81.55A6.73,6.73,0,0,1,382.5,79a6.24,6.24,0,0,1,1.36,2.16,7,7,0,0,1,.47,2.58,5.06,5.06,0,0,1,0,.57c0,.18,0,.33-.05.45H373.61a4.49,4.49,0,0,0,.42,1.6,4,4,0,0,0,.89,1.23,3.72,3.72,0,0,0,1.24.8,3.83,3.83,0,0,0,1.46.28,4.12,4.12,0,0,0,1.11-.14,3.67,3.67,0,0,0,1-.4,3.73,3.73,0,0,0,.82-.65,3.33,3.33,0,0,0,.56-.84l2.38.69a5.5,5.5,0,0,1-2.27,2.45A7,7,0,0,1,377.52,90.71Zm4-7.9a4.39,4.39,0,0,0-.42-1.55,3.83,3.83,0,0,0-2.12-2,4.16,4.16,0,0,0-1.5-.27,3.92,3.92,0,0,0-2.72,1,3.84,3.84,0,0,0-.86,1.21,4.61,4.61,0,0,0-.41,1.55Z"/><path class="cls-1" d="M391.85,90.71a10.08,10.08,0,0,1-3.18-.52,8.29,8.29,0,0,1-2.74-1.48l1.12-1.78a10.35,10.35,0,0,0,2.37,1.3,6.53,6.53,0,0,0,2.38.45,3.56,3.56,0,0,0,2-.48,1.57,1.57,0,0,0,.72-1.38,1.28,1.28,0,0,0-.81-1.22,17.47,17.47,0,0,0-2.55-.84q-1.25-.33-2.13-.63a5.44,5.44,0,0,1-1.45-.71,2.55,2.55,0,0,1-.81-.94,3,3,0,0,1-.26-1.3A3.88,3.88,0,0,1,388,78a4.86,4.86,0,0,1,1.64-.82,6.92,6.92,0,0,1,2-.28,8.52,8.52,0,0,1,2.8.45,7.55,7.55,0,0,1,2.31,1.32l-1.19,1.68a6.25,6.25,0,0,0-3.94-1.47,3.48,3.48,0,0,0-1.8.44,1.54,1.54,0,0,0-.72,1.41,1.44,1.44,0,0,0,.15.69,1.22,1.22,0,0,0,.5.48,3.79,3.79,0,0,0,.89.37c.36.11.82.24,1.36.37.9.22,1.67.44,2.32.66a6.27,6.27,0,0,1,1.62.78,2.81,2.81,0,0,1,.94,1,3.19,3.19,0,0,1,.3,1.44,3.61,3.61,0,0,1-1.43,3A6.31,6.31,0,0,1,391.85,90.71Z"/><path class="cls-1" d="M406.06,90.71a7,7,0,0,1-2.82-.55,6.39,6.39,0,0,1-2.17-1.48,6.78,6.78,0,0,1-1.4-2.19,7.08,7.08,0,0,1-.5-2.64,7.23,7.23,0,0,1,.5-2.66,6.87,6.87,0,0,1,1.4-2.21,6.58,6.58,0,0,1,2.17-1.5,7.24,7.24,0,0,1,2.85-.54,6.91,6.91,0,0,1,2.81.55A6.73,6.73,0,0,1,411,79a6.24,6.24,0,0,1,1.36,2.16,7,7,0,0,1,.47,2.58,5.06,5.06,0,0,1,0,.57c0,.18,0,.33-.05.45H402.15a4.49,4.49,0,0,0,.42,1.6,4,4,0,0,0,.89,1.23,3.72,3.72,0,0,0,1.24.8,3.83,3.83,0,0,0,1.46.28,4.12,4.12,0,0,0,1.11-.14,3.67,3.67,0,0,0,1-.4,3.73,3.73,0,0,0,.82-.65,3.33,3.33,0,0,0,.56-.84l2.38.69a5.5,5.5,0,0,1-2.27,2.45A7,7,0,0,1,406.06,90.71Zm4-7.9a4.39,4.39,0,0,0-.42-1.55,3.83,3.83,0,0,0-2.12-2,4.16,4.16,0,0,0-1.5-.27,3.92,3.92,0,0,0-2.72,1,3.84,3.84,0,0,0-.86,1.21,4.61,4.61,0,0,0-.41,1.55Z"/><path class="cls-1" d="M427.49,90.46h-2.8V83a4.85,4.85,0,0,0-.59-2.73,2,2,0,0,0-1.77-.85,3.3,3.3,0,0,0-1.22.23,4,4,0,0,0-1.14.64,5,5,0,0,0-1,1,4.54,4.54,0,0,0-.64,1.26v7.91h-2.8V77.17h2.54v2.66a5.51,5.51,0,0,1,2.21-2.12,6.65,6.65,0,0,1,3.21-.77,3.91,3.91,0,0,1,2,.43,3.26,3.26,0,0,1,1.21,1.18,5.15,5.15,0,0,1,.62,1.73,11.39,11.39,0,0,1,.18,2.07Z"/><path class="cls-1" d="M434.58,90.46,429.5,77.17h2.87l3.81,10.92L440,77.17h2.64l-5.08,13.29Z"/><path class="cls-1" d="M450.57,90.71a6.83,6.83,0,0,1-2.84-.56,6.57,6.57,0,0,1-3.52-3.7,7.26,7.26,0,0,1-.48-2.63,7.34,7.34,0,0,1,.48-2.63A6.4,6.4,0,0,1,445.6,79a6.64,6.64,0,0,1,5-2.06,6.64,6.64,0,0,1,5,2.06,6.37,6.37,0,0,1,1.38,2.19,7.35,7.35,0,0,1,.49,2.63,7.27,7.27,0,0,1-.49,2.63,6.41,6.41,0,0,1-1.38,2.2,6.74,6.74,0,0,1-5,2.06Zm-4-6.86a5.12,5.12,0,0,0,.31,1.78,4.33,4.33,0,0,0,.84,1.41A3.85,3.85,0,0,0,449,88a3.63,3.63,0,0,0,1.57.34,3.56,3.56,0,0,0,1.56-.34,4,4,0,0,0,1.26-1,4.61,4.61,0,0,0,.84-1.43,5.37,5.37,0,0,0,0-3.54,4.67,4.67,0,0,0-.84-1.44,4,4,0,0,0-1.26-1,3.56,3.56,0,0,0-1.56-.34,3.38,3.38,0,0,0-1.54.35,4.09,4.09,0,0,0-1.26,1,4.72,4.72,0,0,0-.85,1.43A4.92,4.92,0,0,0,446.6,83.85Z"/><path class="cls-1" d="M460.33,71.9h2.79V86.62a1.64,1.64,0,0,0,.39,1.16,1.36,1.36,0,0,0,1.06.42,2.39,2.39,0,0,0,.65-.11,6.39,6.39,0,0,0,.7-.22l.41,2.18a6.36,6.36,0,0,1-1.45.45,7.83,7.83,0,0,1-1.5.16,3,3,0,0,1-2.25-.79,3,3,0,0,1-.8-2.23Z"/><path class="cls-1" d="M471.82,90.46l-5.09-13.29h2.88l3.81,10.92,3.84-10.92h2.64l-5.08,13.29Z"/><path class="cls-1" d="M482.29,75V71.9h2.8V75Zm0,15.48V77.17h2.8V90.46Z"/><path class="cls-1" d="M509.18,90.46h-2.8V83a4.76,4.76,0,0,0-.61-2.72,2,2,0,0,0-1.78-.86,3.19,3.19,0,0,0-2.17.87,5,5,0,0,0-1.41,2.28v7.88h-2.8V83a4.75,4.75,0,0,0-.61-2.73,2,2,0,0,0-1.75-.85,3.27,3.27,0,0,0-2.18.86,4.78,4.78,0,0,0-1.43,2.26v7.91h-2.79V77.17h2.54v2.66a5.54,5.54,0,0,1,2.07-2.14,5.69,5.69,0,0,1,2.94-.75,3.54,3.54,0,0,1,3.78,3,6.12,6.12,0,0,1,2.11-2.25,5.42,5.42,0,0,1,2.9-.77,3.89,3.89,0,0,1,1.94.44,3.51,3.51,0,0,1,1.24,1.18,5,5,0,0,1,.63,1.72,11.39,11.39,0,0,1,.18,2.07Z"/><path class="cls-1" d="M518.84,90.71a6.92,6.92,0,0,1-2.82-.55,6.43,6.43,0,0,1-2.18-1.48,6.75,6.75,0,0,1-1.39-2.19,7.08,7.08,0,0,1-.5-2.64,7.23,7.23,0,0,1,.5-2.66A6.84,6.84,0,0,1,513.84,79a6.62,6.62,0,0,1,2.18-1.5,7.15,7.15,0,0,1,2.84-.54,6.87,6.87,0,0,1,2.81.55A6.78,6.78,0,0,1,523.82,79a6.39,6.39,0,0,1,1.36,2.16,7.24,7.24,0,0,1,.47,2.58,4.91,4.91,0,0,1,0,.57,4.09,4.09,0,0,1,0,.45H514.92a4.49,4.49,0,0,0,.42,1.6,4.13,4.13,0,0,0,.89,1.23,3.93,3.93,0,0,0,2.71,1.08,4.1,4.1,0,0,0,1.1-.14,3.74,3.74,0,0,0,1-.4,3.92,3.92,0,0,0,.81-.65,2.87,2.87,0,0,0,.56-.84l2.39.69a5.61,5.61,0,0,1-2.27,2.45A7,7,0,0,1,518.84,90.71Zm4-7.9a4.39,4.39,0,0,0-.42-1.55,3.89,3.89,0,0,0-.88-1.21,4,4,0,0,0-1.24-.78,4.24,4.24,0,0,0-1.5-.27,4.1,4.1,0,0,0-1.49.27,4,4,0,0,0-1.23.78,3.72,3.72,0,0,0-.87,1.21,4.6,4.6,0,0,0-.4,1.55Z"/><path class="cls-1" d="M540.26,90.46h-2.79V83a4.84,4.84,0,0,0-.6-2.73,2,2,0,0,0-1.77-.85,3.33,3.33,0,0,0-1.22.23,4.31,4.31,0,0,0-1.14.64,4.7,4.7,0,0,0-1,1,4.57,4.57,0,0,0-.65,1.26v7.91h-2.8V77.17h2.54v2.66a5.47,5.47,0,0,1,2.22-2.12,6.61,6.61,0,0,1,3.2-.77,4,4,0,0,1,2,.43,3.31,3.31,0,0,1,1.2,1.18,4.94,4.94,0,0,1,.62,1.73,11.39,11.39,0,0,1,.18,2.07Z"/><path class="cls-1" d="M551.19,89.77a12.75,12.75,0,0,1-1.47.57,6,6,0,0,1-2,.32,4.24,4.24,0,0,1-1.25-.18,2.84,2.84,0,0,1-1-.53,2.34,2.34,0,0,1-.7-.93,3.36,3.36,0,0,1-.26-1.38V79.33h-1.75V77.17h1.75V72.79h2.8v4.38h2.9v2.16h-2.9v7.42a1.38,1.38,0,0,0,.44,1,1.53,1.53,0,0,0,1,.31,3,3,0,0,0,1.12-.2c.36-.14.62-.24.79-.33Z"/><path class="cls-1" d="M559.17,90.71a6.78,6.78,0,0,1-2.83-.56,6.49,6.49,0,0,1-3.52-3.7,7.26,7.26,0,0,1-.48-2.63,7.34,7.34,0,0,1,.48-2.63A6.25,6.25,0,0,1,554.21,79a6.91,6.91,0,0,1,9.93,0,6.4,6.4,0,0,1,1.39,2.19,7.34,7.34,0,0,1,.48,2.63,7.26,7.26,0,0,1-.48,2.63,6.44,6.44,0,0,1-1.39,2.2,6.64,6.64,0,0,1-2.16,1.5A6.72,6.72,0,0,1,559.17,90.71Zm-4-6.86a4.9,4.9,0,0,0,.31,1.78,4.49,4.49,0,0,0,.83,1.41,4,4,0,0,0,1.26.94,3.77,3.77,0,0,0,3.13,0A4,4,0,0,0,562,87a4.59,4.59,0,0,0,.83-1.43,5.21,5.21,0,0,0,0-3.54,4.64,4.64,0,0,0-.83-1.44,4,4,0,0,0-1.26-1,3.6,3.6,0,0,0-1.57-.34,3.37,3.37,0,0,0-1.53.35,4,4,0,0,0-1.26,1,4.52,4.52,0,0,0-.85,1.43A4.72,4.72,0,0,0,555.21,83.85Z"/></svg>